<svg width="150" height="59" viewBox="0 0 150 59" fill="none" xmlns="http://www.w3.org/2000/svg">
<rect y="19" width="150" height="40" fill="#1F1D1D"/>
<path d="M10.9716 23.2727V32H9.91477V24.3807H9.86364L7.73295 25.7955V24.7216L9.91477 23.2727H10.9716ZM15.3054 27.125C14.9446 27.125 14.6151 27.0369 14.3168 26.8608C14.0213 26.6847 13.7855 26.4489 13.6094 26.1534C13.4332 25.8551 13.3452 25.5256 13.3452 25.1648C13.3452 24.804 13.4332 24.4759 13.6094 24.1804C13.7855 23.8821 14.0213 23.6449 14.3168 23.4688C14.6151 23.2926 14.9446 23.2045 15.3054 23.2045C15.6662 23.2045 15.9943 23.2926 16.2898 23.4688C16.5881 23.6449 16.8253 23.8821 17.0014 24.1804C17.1776 24.4759 17.2656 24.804 17.2656 25.1648C17.2656 25.5256 17.1776 25.8551 17.0014 26.1534C16.8253 26.4489 16.5881 26.6847 16.2898 26.8608C15.9943 27.0369 15.6662 27.125 15.3054 27.125ZM15.3054 26.2727C15.5099 26.2727 15.696 26.223 15.8636 26.1236C16.0312 26.0241 16.1648 25.8906 16.2642 25.723C16.3636 25.5554 16.4134 25.3693 16.4134 25.1648C16.4134 24.9602 16.3636 24.7741 16.2642 24.6065C16.1648 24.4389 16.0312 24.3054 15.8636 24.206C15.696 24.1065 15.5099 24.0568 15.3054 24.0568C15.1009 24.0568 14.9148 24.1065 14.7472 24.206C14.5795 24.3054 14.446 24.4389 14.3466 24.6065C14.2472 24.7741 14.1974 24.9602 14.1974 25.1648C14.1974 25.3693 14.2472 25.5554 14.3466 25.723C14.446 25.8906 14.5795 26.0241 14.7472 26.1236C14.9148 26.223 15.1009 26.2727 15.3054 26.2727ZM18.4929 32H17.3849L20.5895 23.2727H21.6804L24.8849 32H23.777L21.169 24.6534H21.1009L18.4929 32ZM18.902 28.5909H23.3679V29.5284H18.902V28.5909Z" fill="white"/>
<path d="M10.9716 46.2727V55H9.91477V47.3807H9.86364L7.73295 48.7955V47.7216L9.91477 46.2727H10.9716ZM15.3054 50.125C14.9446 50.125 14.6151 50.0369 14.3168 49.8608C14.0213 49.6847 13.7855 49.4489 13.6094 49.1534C13.4332 48.8551 13.3452 48.5256 13.3452 48.1648C13.3452 47.804 13.4332 47.4759 13.6094 47.1804C13.7855 46.8821 14.0213 46.6449 14.3168 46.4688C14.6151 46.2926 14.9446 46.2045 15.3054 46.2045C15.6662 46.2045 15.9943 46.2926 16.2898 46.4688C16.5881 46.6449 16.8253 46.8821 17.0014 47.1804C17.1776 47.4759 17.2656 47.804 17.2656 48.1648C17.2656 48.5256 17.1776 48.8551 17.0014 49.1534C16.8253 49.4489 16.5881 49.6847 16.2898 49.8608C15.9943 50.0369 15.6662 50.125 15.3054 50.125ZM15.3054 49.2727C15.5099 49.2727 15.696 49.223 15.8636 49.1236C16.0312 49.0241 16.1648 48.8906 16.2642 48.723C16.3636 48.5554 16.4134 48.3693 16.4134 48.1648C16.4134 47.9602 16.3636 47.7741 16.2642 47.6065C16.1648 47.4389 16.0312 47.3054 15.8636 47.206C15.696 47.1065 15.5099 47.0568 15.3054 47.0568C15.1009 47.0568 14.9148 47.1065 14.7472 47.206C14.5795 47.3054 14.446 47.4389 14.3466 47.6065C14.2472 47.7741 14.1974 47.9602 14.1974 48.1648C14.1974 48.3693 14.2472 48.5554 14.3466 48.723C14.446 48.8906 14.5795 49.0241 14.7472 49.1236C14.9148 49.223 15.1009 49.2727 15.3054 49.2727ZM19.0842 55V46.2727H22.1353C22.7433 46.2727 23.2447 46.3778 23.6396 46.5881C24.0344 46.7955 24.3285 47.0753 24.5217 47.4276C24.7148 47.777 24.8114 48.1648 24.8114 48.5909C24.8114 48.9659 24.7447 49.2756 24.6112 49.5199C24.4805 49.7642 24.3072 49.9574 24.0913 50.0994C23.8782 50.2415 23.6467 50.3466 23.3967 50.4148V50.5C23.6637 50.517 23.9322 50.6108 24.2021 50.7812C24.4719 50.9517 24.6978 51.196 24.8796 51.5142C25.0614 51.8324 25.1523 52.2216 25.1523 52.6818C25.1523 53.1193 25.0529 53.5128 24.854 53.8622C24.6552 54.2116 24.3413 54.4886 23.9123 54.6932C23.4833 54.8977 22.9251 55 22.2376 55H19.0842ZM20.141 54.0625H22.2376C22.9279 54.0625 23.418 53.929 23.7077 53.6619C24.0004 53.392 24.1467 53.0653 24.1467 52.6818C24.1467 52.3864 24.0714 52.1136 23.9208 51.8636C23.7702 51.6108 23.5558 51.4091 23.2773 51.2585C22.9989 51.1051 22.6694 51.0284 22.2887 51.0284H20.141V54.0625ZM20.141 50.108H22.1012C22.4194 50.108 22.7063 50.0455 22.962 49.9205C23.2205 49.7955 23.4251 49.6193 23.5756 49.392C23.729 49.1648 23.8058 48.8977 23.8058 48.5909C23.8058 48.2074 23.6722 47.8821 23.4052 47.6151C23.1381 47.3452 22.7148 47.2102 22.1353 47.2102H20.141V50.108Z" fill="white"/>
<path d="M124.75 32.1193C124.108 32.1193 123.561 31.9446 123.109 31.5952C122.658 31.2429 122.313 30.733 122.074 30.0653C121.835 29.3949 121.716 28.5852 121.716 27.6364C121.716 26.6932 121.835 25.8878 122.074 25.2202C122.315 24.5497 122.662 24.0384 123.114 23.6861C123.568 23.331 124.114 23.1534 124.75 23.1534C125.386 23.1534 125.93 23.331 126.382 23.6861C126.837 24.0384 127.183 24.5497 127.422 25.2202C127.663 25.8878 127.784 26.6932 127.784 27.6364C127.784 28.5852 127.665 29.3949 127.426 30.0653C127.188 30.733 126.842 31.2429 126.391 31.5952C125.939 31.9446 125.392 32.1193 124.75 32.1193ZM124.75 31.1818C125.386 31.1818 125.881 30.875 126.233 30.2614C126.585 29.6477 126.761 28.7727 126.761 27.6364C126.761 26.8807 126.68 26.2372 126.518 25.706C126.359 25.1747 126.129 24.7699 125.828 24.4915C125.53 24.2131 125.17 24.0739 124.75 24.0739C124.119 24.0739 123.626 24.3849 123.271 25.0071C122.916 25.6264 122.739 26.5028 122.739 27.6364C122.739 28.392 122.818 29.0341 122.977 29.5625C123.136 30.0909 123.365 30.4929 123.663 30.7685C123.964 31.044 124.327 31.1818 124.75 31.1818Z" fill="white"/>
<path d="M124.75 55.1193C124.108 55.1193 123.561 54.9446 123.109 54.5952C122.658 54.2429 122.313 53.733 122.074 53.0653C121.835 52.3949 121.716 51.5852 121.716 50.6364C121.716 49.6932 121.835 48.8878 122.074 48.2202C122.315 47.5497 122.662 47.0384 123.114 46.6861C123.568 46.331 124.114 46.1534 124.75 46.1534C125.386 46.1534 125.93 46.331 126.382 46.6861C126.837 47.0384 127.183 47.5497 127.422 48.2202C127.663 48.8878 127.784 49.6932 127.784 50.6364C127.784 51.5852 127.665 52.3949 127.426 53.0653C127.188 53.733 126.842 54.2429 126.391 54.5952C125.939 54.9446 125.392 55.1193 124.75 55.1193ZM124.75 54.1818C125.386 54.1818 125.881 53.875 126.233 53.2614C126.585 52.6477 126.761 51.7727 126.761 50.6364C126.761 49.8807 126.68 49.2372 126.518 48.706C126.359 48.1747 126.129 47.7699 125.828 47.4915C125.53 47.2131 125.17 47.0739 124.75 47.0739C124.119 47.0739 123.626 47.3849 123.271 48.0071C122.916 48.6264 122.739 49.5028 122.739 50.6364C122.739 51.392 122.818 52.0341 122.977 52.5625C123.136 53.0909 123.365 53.4929 123.663 53.7685C123.964 54.044 124.327 54.1818 124.75 54.1818Z" fill="white"/>
<path d="M4.39773 3.27273H5.45455V9.51136C5.45455 10.0682 5.35227 10.5412 5.14773 10.9304C4.94318 11.3196 4.65483 11.6151 4.28267 11.8168C3.91051 12.0185 3.47159 12.1193 2.96591 12.1193C2.48864 12.1193 2.06392 12.0327 1.69176 11.8594C1.3196 11.6832 1.02699 11.4332 0.81392 11.1094C0.600852 10.7855 0.494318 10.4006 0.494318 9.95455H1.53409C1.53409 10.2017 1.59517 10.4176 1.71733 10.6023C1.84233 10.7841 2.01278 10.9261 2.22869 11.0284C2.4446 11.1307 2.69034 11.1818 2.96591 11.1818C3.26989 11.1818 3.52841 11.1179 3.74148 10.9901C3.95455 10.8622 4.11648 10.6747 4.22727 10.4276C4.34091 10.1776 4.39773 9.87216 4.39773 9.51136V3.27273ZM10.0952 12.1364C9.50426 12.1364 8.9858 11.9957 8.53977 11.7145C8.09659 11.4332 7.75 11.0398 7.5 10.5341C7.25284 10.0284 7.12926 9.4375 7.12926 8.76136C7.12926 8.07955 7.25284 7.48437 7.5 6.97585C7.75 6.46733 8.09659 6.07244 8.53977 5.79119C8.9858 5.50994 9.50426 5.36932 10.0952 5.36932C10.6861 5.36932 11.2031 5.50994 11.6463 5.79119C12.0923 6.07244 12.4389 6.46733 12.6861 6.97585C12.9361 7.48437 13.0611 8.07955 13.0611 8.76136C13.0611 9.4375 12.9361 10.0284 12.6861 10.5341C12.4389 11.0398 12.0923 11.4332 11.6463 11.7145C11.2031 11.9957 10.6861 12.1364 10.0952 12.1364ZM10.0952 11.233C10.544 11.233 10.9134 11.1179 11.2031 10.8878C11.4929 10.6577 11.7074 10.3551 11.8466 9.98011C11.9858 9.60511 12.0554 9.19886 12.0554 8.76136C12.0554 8.32386 11.9858 7.91619 11.8466 7.53835C11.7074 7.16051 11.4929 6.85511 11.2031 6.62216C10.9134 6.3892 10.544 6.27273 10.0952 6.27273C9.64631 6.27273 9.27699 6.3892 8.98722 6.62216C8.69744 6.85511 8.48295 7.16051 8.34375 7.53835C8.20455 7.91619 8.13494 8.32386 8.13494 8.76136C8.13494 9.19886 8.20455 9.60511 8.34375 9.98011C8.48295 10.3551 8.69744 10.6577 8.98722 10.8878C9.27699 11.1179 9.64631 11.233 10.0952 11.233ZM17.2383 14.5909C16.7525 14.5909 16.3349 14.5284 15.9854 14.4034C15.636 14.2812 15.3448 14.1193 15.1119 13.9176C14.8817 13.7188 14.6985 13.5057 14.5621 13.2784L15.3633 12.7159C15.4542 12.8352 15.5692 12.9716 15.7085 13.125C15.8477 13.2812 16.038 13.4162 16.2795 13.5298C16.5238 13.6463 16.8434 13.7045 17.2383 13.7045C17.7667 13.7045 18.2028 13.5767 18.5465 13.321C18.8903 13.0653 19.0621 12.6648 19.0621 12.1193V10.7898H18.9769C18.9031 10.9091 18.7979 11.0568 18.6616 11.233C18.5281 11.4062 18.3349 11.5611 18.082 11.6974C17.832 11.831 17.494 11.8977 17.0678 11.8977C16.5394 11.8977 16.065 11.7727 15.6445 11.5227C15.2269 11.2727 14.896 10.9091 14.6516 10.4318C14.4102 9.95455 14.2894 9.375 14.2894 8.69318C14.2894 8.02273 14.4073 7.43892 14.6431 6.94176C14.8789 6.44176 15.207 6.0554 15.6275 5.78267C16.0479 5.5071 16.5337 5.36932 17.0849 5.36932C17.511 5.36932 17.8491 5.44034 18.0991 5.58239C18.3519 5.72159 18.5451 5.88068 18.6786 6.05966C18.815 6.2358 18.9201 6.38068 18.994 6.49432H19.0962V5.45455H20.0678V12.1875C20.0678 12.75 19.94 13.2074 19.6843 13.5597C19.4315 13.9148 19.0906 14.1747 18.6616 14.3395C18.2354 14.5071 17.761 14.5909 17.2383 14.5909ZM17.2042 10.9943C17.6076 10.9943 17.9485 10.902 18.2269 10.7173C18.5053 10.5327 18.717 10.267 18.8619 9.92045C19.0067 9.57386 19.0792 9.15909 19.0792 8.67614C19.0792 8.20455 19.0082 7.78835 18.8661 7.42756C18.7241 7.06676 18.5138 6.78409 18.2354 6.57955C17.957 6.375 17.6133 6.27273 17.2042 6.27273C16.7781 6.27273 16.4229 6.38068 16.1388 6.59659C15.8576 6.8125 15.646 7.10227 15.5039 7.46591C15.3647 7.82955 15.2951 8.23295 15.2951 8.67614C15.2951 9.13068 15.3661 9.53267 15.5082 9.8821C15.6531 10.2287 15.8661 10.5014 16.1474 10.7003C16.4315 10.8963 16.7837 10.9943 17.2042 10.9943ZM24.5678 12.1364C23.9769 12.1364 23.4585 11.9957 23.0124 11.7145C22.5692 11.4332 22.2227 11.0398 21.9727 10.5341C21.7255 10.0284 21.6019 9.4375 21.6019 8.76136C21.6019 8.07955 21.7255 7.48437 21.9727 6.97585C22.2227 6.46733 22.5692 6.07244 23.0124 5.79119C23.4585 5.50994 23.9769 5.36932 24.5678 5.36932C25.1587 5.36932 25.6758 5.50994 26.119 5.79119C26.565 6.07244 26.9116 6.46733 27.1587 6.97585C27.4087 7.48437 27.5337 8.07955 27.5337 8.76136C27.5337 9.4375 27.4087 10.0284 27.1587 10.5341C26.9116 11.0398 26.565 11.4332 26.119 11.7145C25.6758 11.9957 25.1587 12.1364 24.5678 12.1364ZM24.5678 11.233C25.0167 11.233 25.386 11.1179 25.6758 10.8878C25.9656 10.6577 26.18 10.3551 26.3192 9.98011C26.4585 9.60511 26.5281 9.19886 26.5281 8.76136C26.5281 8.32386 26.4585 7.91619 26.3192 7.53835C26.18 7.16051 25.9656 6.85511 25.6758 6.62216C25.386 6.3892 25.0167 6.27273 24.5678 6.27273C24.119 6.27273 23.7496 6.3892 23.4599 6.62216C23.1701 6.85511 22.9556 7.16051 22.8164 7.53835C22.6772 7.91619 22.6076 8.32386 22.6076 8.76136C22.6076 9.19886 22.6772 9.60511 22.8164 9.98011C22.9556 10.3551 23.1701 10.6577 23.4599 10.8878C23.7496 11.1179 24.119 11.233 24.5678 11.233ZM32.12 3.27273V12H31.0632V4.38068H31.0121L28.8814 5.79545V4.72159L31.0632 3.27273H32.12Z" fill="black"/>
<line x1="-5.36193e-08" y1="38.5" x2="150" y2="38.5" stroke="#767575"/>
</svg>
